<mxfile host="app.diagrams.net" modified="2021-09-05T15:04:57.918Z" agent="5.0 (Windows NT 10.0; Win64; x64) AppleWebKit/537.36 (KHTML, like Gecko) Chrome/92.0.4515.159 Safari/537.36" etag="KJC5KwnwKJlQTYTdmzoQ" version="14.5.10" type="github">
  <diagram id="MQhZJjkZrY4oPZB1BTH6" name="第 1 页">
    <mxGraphModel dx="1422" dy="762" grid="1" gridSize="10" guides="1" tooltips="1" connect="1" arrows="1" fold="1" page="1" pageScale="1" pageWidth="827" pageHeight="1169" math="0" shadow="0">
      <root>
        <mxCell id="0" />
        <mxCell id="1" parent="0" />
        <mxCell id="aR_i40FDtTKbv0qqF_Ef-54" style="edgeStyle=orthogonalEdgeStyle;rounded=0;orthogonalLoop=1;jettySize=auto;html=1;entryX=0.5;entryY=0;entryDx=0;entryDy=0;" edge="1" parent="1" source="aR_i40FDtTKbv0qqF_Ef-1" target="aR_i40FDtTKbv0qqF_Ef-5">
          <mxGeometry relative="1" as="geometry" />
        </mxCell>
        <mxCell id="aR_i40FDtTKbv0qqF_Ef-1" value="访问层" style="rounded=0;whiteSpace=wrap;html=1;fillColor=#f8cecc;strokeColor=#b85450;verticalAlign=top;" vertex="1" parent="1">
          <mxGeometry x="110" y="120" width="660" height="90" as="geometry" />
        </mxCell>
        <mxCell id="aR_i40FDtTKbv0qqF_Ef-2" value="PC设备" style="rounded=0;whiteSpace=wrap;html=1;fillColor=#fff2cc;strokeColor=#d6b656;" vertex="1" parent="1">
          <mxGeometry x="150" y="140" width="120" height="60" as="geometry" />
        </mxCell>
        <mxCell id="aR_i40FDtTKbv0qqF_Ef-3" value="大屏设备" style="rounded=0;whiteSpace=wrap;html=1;fillColor=#fff2cc;strokeColor=#d6b656;" vertex="1" parent="1">
          <mxGeometry x="380" y="140" width="120" height="60" as="geometry" />
        </mxCell>
        <mxCell id="aR_i40FDtTKbv0qqF_Ef-4" value="移动设备" style="rounded=0;whiteSpace=wrap;html=1;fillColor=#fff2cc;strokeColor=#d6b656;" vertex="1" parent="1">
          <mxGeometry x="590" y="140" width="120" height="60" as="geometry" />
        </mxCell>
        <mxCell id="aR_i40FDtTKbv0qqF_Ef-55" style="edgeStyle=orthogonalEdgeStyle;rounded=0;orthogonalLoop=1;jettySize=auto;html=1;entryX=0.5;entryY=0;entryDx=0;entryDy=0;" edge="1" parent="1" source="aR_i40FDtTKbv0qqF_Ef-5" target="aR_i40FDtTKbv0qqF_Ef-14">
          <mxGeometry relative="1" as="geometry" />
        </mxCell>
        <mxCell id="aR_i40FDtTKbv0qqF_Ef-5" value="展现层" style="rounded=0;whiteSpace=wrap;html=1;fillColor=#dae8fc;strokeColor=#6c8ebf;verticalAlign=top;" vertex="1" parent="1">
          <mxGeometry x="110" y="250" width="660" height="100" as="geometry" />
        </mxCell>
        <mxCell id="aR_i40FDtTKbv0qqF_Ef-6" value="CSS" style="rounded=0;whiteSpace=wrap;html=1;fillColor=#e1d5e7;strokeColor=#9673a6;" vertex="1" parent="1">
          <mxGeometry x="140" y="270" width="80" height="30" as="geometry" />
        </mxCell>
        <mxCell id="aR_i40FDtTKbv0qqF_Ef-7" value="jquery" style="rounded=0;whiteSpace=wrap;html=1;fillColor=#e1d5e7;strokeColor=#9673a6;" vertex="1" parent="1">
          <mxGeometry x="240" y="270" width="80" height="30" as="geometry" />
        </mxCell>
        <mxCell id="aR_i40FDtTKbv0qqF_Ef-8" value="HTML" style="rounded=0;whiteSpace=wrap;html=1;fillColor=#e1d5e7;strokeColor=#9673a6;" vertex="1" parent="1">
          <mxGeometry x="340" y="270" width="80" height="30" as="geometry" />
        </mxCell>
        <mxCell id="aR_i40FDtTKbv0qqF_Ef-9" value="vUE" style="rounded=0;whiteSpace=wrap;html=1;fillColor=#e1d5e7;strokeColor=#9673a6;" vertex="1" parent="1">
          <mxGeometry x="440" y="270" width="80" height="30" as="geometry" />
        </mxCell>
        <mxCell id="aR_i40FDtTKbv0qqF_Ef-10" value="ts" style="rounded=0;whiteSpace=wrap;html=1;fillColor=#e1d5e7;strokeColor=#9673a6;" vertex="1" parent="1">
          <mxGeometry x="540" y="270" width="80" height="30" as="geometry" />
        </mxCell>
        <mxCell id="aR_i40FDtTKbv0qqF_Ef-11" value="JS" style="rounded=0;whiteSpace=wrap;html=1;fillColor=#e1d5e7;strokeColor=#9673a6;" vertex="1" parent="1">
          <mxGeometry x="650" y="270" width="80" height="30" as="geometry" />
        </mxCell>
        <mxCell id="aR_i40FDtTKbv0qqF_Ef-12" value="HTTP" style="rounded=0;whiteSpace=wrap;html=1;fillColor=#e1d5e7;strokeColor=#9673a6;" vertex="1" parent="1">
          <mxGeometry x="140" y="310" width="80" height="30" as="geometry" />
        </mxCell>
        <mxCell id="aR_i40FDtTKbv0qqF_Ef-13" value="WS" style="rounded=0;whiteSpace=wrap;html=1;fillColor=#e1d5e7;strokeColor=#9673a6;" vertex="1" parent="1">
          <mxGeometry x="240" y="310" width="80" height="30" as="geometry" />
        </mxCell>
        <mxCell id="aR_i40FDtTKbv0qqF_Ef-14" value="系统层" style="rounded=0;whiteSpace=wrap;html=1;fillColor=#fad7ac;strokeColor=#b46504;verticalAlign=top;" vertex="1" parent="1">
          <mxGeometry x="110" y="380" width="660" height="480" as="geometry" />
        </mxCell>
        <mxCell id="aR_i40FDtTKbv0qqF_Ef-34" style="edgeStyle=orthogonalEdgeStyle;rounded=0;orthogonalLoop=1;jettySize=auto;html=1;exitX=1;exitY=0.5;exitDx=0;exitDy=0;" edge="1" parent="1" source="aR_i40FDtTKbv0qqF_Ef-15" target="aR_i40FDtTKbv0qqF_Ef-16">
          <mxGeometry relative="1" as="geometry" />
        </mxCell>
        <mxCell id="aR_i40FDtTKbv0qqF_Ef-15" value="" style="rounded=0;whiteSpace=wrap;html=1;fillColor=#F1FFAB;" vertex="1" parent="1">
          <mxGeometry x="130" y="410" width="470" height="210" as="geometry" />
        </mxCell>
        <mxCell id="aR_i40FDtTKbv0qqF_Ef-16" value="缓存" style="rounded=0;whiteSpace=wrap;html=1;verticalAlign=top;fillColor=#573DFF;" vertex="1" parent="1">
          <mxGeometry x="635" y="420" width="130" height="190" as="geometry" />
        </mxCell>
        <mxCell id="aR_i40FDtTKbv0qqF_Ef-17" value="redis" style="rounded=0;whiteSpace=wrap;html=1;fillColor=#C88AFF;" vertex="1" parent="1">
          <mxGeometry x="650" y="460" width="100" height="30" as="geometry" />
        </mxCell>
        <mxCell id="aR_i40FDtTKbv0qqF_Ef-18" value="memcached" style="rounded=0;whiteSpace=wrap;html=1;fillColor=#C88AFF;" vertex="1" parent="1">
          <mxGeometry x="650" y="510" width="100" height="30" as="geometry" />
        </mxCell>
        <mxCell id="aR_i40FDtTKbv0qqF_Ef-19" value="haz" style="rounded=0;whiteSpace=wrap;html=1;fillColor=#C88AFF;" vertex="1" parent="1">
          <mxGeometry x="650" y="555" width="100" height="30" as="geometry" />
        </mxCell>
        <mxCell id="aR_i40FDtTKbv0qqF_Ef-21" value="" style="rounded=0;whiteSpace=wrap;html=1;fillColor=#FFF1E6;" vertex="1" parent="1">
          <mxGeometry x="140" y="420" width="450" height="90" as="geometry" />
        </mxCell>
        <mxCell id="aR_i40FDtTKbv0qqF_Ef-22" value="" style="rounded=0;whiteSpace=wrap;html=1;fillColor=#FFF1E6;" vertex="1" parent="1">
          <mxGeometry x="140" y="520" width="450" height="90" as="geometry" />
        </mxCell>
        <mxCell id="aR_i40FDtTKbv0qqF_Ef-24" value="风险报表系统" style="rounded=0;whiteSpace=wrap;html=1;fillColor=#C88AFF;" vertex="1" parent="1">
          <mxGeometry x="150" y="430" width="100" height="30" as="geometry" />
        </mxCell>
        <mxCell id="aR_i40FDtTKbv0qqF_Ef-25" value="风险管理系统" style="rounded=0;whiteSpace=wrap;html=1;fillColor=#C88AFF;" vertex="1" parent="1">
          <mxGeometry x="315" y="430" width="100" height="30" as="geometry" />
        </mxCell>
        <mxCell id="aR_i40FDtTKbv0qqF_Ef-26" value="贷中监控系统" style="rounded=0;whiteSpace=wrap;html=1;fillColor=#C88AFF;" vertex="1" parent="1">
          <mxGeometry x="470" y="430" width="100" height="30" as="geometry" />
        </mxCell>
        <mxCell id="aR_i40FDtTKbv0qqF_Ef-27" value="贷后管理系统" style="rounded=0;whiteSpace=wrap;html=1;fillColor=#C88AFF;" vertex="1" parent="1">
          <mxGeometry x="150" y="470" width="100" height="30" as="geometry" />
        </mxCell>
        <mxCell id="aR_i40FDtTKbv0qqF_Ef-28" value="贷后催收系统" style="rounded=0;whiteSpace=wrap;html=1;fillColor=#C88AFF;" vertex="1" parent="1">
          <mxGeometry x="314" y="470" width="100" height="30" as="geometry" />
        </mxCell>
        <mxCell id="aR_i40FDtTKbv0qqF_Ef-29" value="风险管理系统" style="rounded=0;whiteSpace=wrap;html=1;fillColor=#C88AFF;" vertex="1" parent="1">
          <mxGeometry x="470" y="470" width="100" height="30" as="geometry" />
        </mxCell>
        <mxCell id="aR_i40FDtTKbv0qqF_Ef-30" value="quarkUS" style="rounded=0;whiteSpace=wrap;html=1;fillColor=#C88AFF;" vertex="1" parent="1">
          <mxGeometry x="150" y="530" width="100" height="30" as="geometry" />
        </mxCell>
        <mxCell id="aR_i40FDtTKbv0qqF_Ef-31" value="light4j" style="rounded=0;whiteSpace=wrap;html=1;fillColor=#C88AFF;" vertex="1" parent="1">
          <mxGeometry x="315" y="530" width="100" height="30" as="geometry" />
        </mxCell>
        <mxCell id="aR_i40FDtTKbv0qqF_Ef-32" value="gateway" style="rounded=0;whiteSpace=wrap;html=1;fillColor=#C88AFF;" vertex="1" parent="1">
          <mxGeometry x="470" y="530" width="100" height="30" as="geometry" />
        </mxCell>
        <mxCell id="aR_i40FDtTKbv0qqF_Ef-33" value="....." style="rounded=0;whiteSpace=wrap;html=1;fillColor=#C88AFF;" vertex="1" parent="1">
          <mxGeometry x="150" y="570" width="100" height="30" as="geometry" />
        </mxCell>
        <mxCell id="aR_i40FDtTKbv0qqF_Ef-56" style="edgeStyle=orthogonalEdgeStyle;rounded=0;orthogonalLoop=1;jettySize=auto;html=1;exitX=1;exitY=0.5;exitDx=0;exitDy=0;entryX=0;entryY=0.5;entryDx=0;entryDy=0;" edge="1" parent="1" source="aR_i40FDtTKbv0qqF_Ef-35" target="aR_i40FDtTKbv0qqF_Ef-38">
          <mxGeometry relative="1" as="geometry" />
        </mxCell>
        <mxCell id="aR_i40FDtTKbv0qqF_Ef-35" value="" style="rounded=0;whiteSpace=wrap;html=1;fillColor=#F1FFAB;" vertex="1" parent="1">
          <mxGeometry x="130" y="630" width="470" height="210" as="geometry" />
        </mxCell>
        <mxCell id="aR_i40FDtTKbv0qqF_Ef-36" value="" style="rounded=0;whiteSpace=wrap;html=1;fillColor=#FFF1E6;" vertex="1" parent="1">
          <mxGeometry x="140" y="640" width="450" height="90" as="geometry" />
        </mxCell>
        <mxCell id="aR_i40FDtTKbv0qqF_Ef-37" value="" style="rounded=0;whiteSpace=wrap;html=1;fillColor=#FFF1E6;" vertex="1" parent="1">
          <mxGeometry x="140" y="740" width="450" height="90" as="geometry" />
        </mxCell>
        <mxCell id="aR_i40FDtTKbv0qqF_Ef-38" value="索引" style="rounded=0;whiteSpace=wrap;html=1;verticalAlign=top;fillColor=#573DFF;" vertex="1" parent="1">
          <mxGeometry x="635" y="640" width="130" height="190" as="geometry" />
        </mxCell>
        <mxCell id="aR_i40FDtTKbv0qqF_Ef-39" value="指标管理系统" style="rounded=0;whiteSpace=wrap;html=1;fillColor=#C88AFF;" vertex="1" parent="1">
          <mxGeometry x="150" y="650" width="100" height="30" as="geometry" />
        </mxCell>
        <mxCell id="aR_i40FDtTKbv0qqF_Ef-40" value="指标管理系统" style="rounded=0;whiteSpace=wrap;html=1;fillColor=#C88AFF;" vertex="1" parent="1">
          <mxGeometry x="315" y="650" width="100" height="30" as="geometry" />
        </mxCell>
        <mxCell id="aR_i40FDtTKbv0qqF_Ef-41" value="指标管理系统" style="rounded=0;whiteSpace=wrap;html=1;fillColor=#C88AFF;" vertex="1" parent="1">
          <mxGeometry x="470" y="650" width="100" height="30" as="geometry" />
        </mxCell>
        <mxCell id="aR_i40FDtTKbv0qqF_Ef-42" value="ES" style="rounded=0;whiteSpace=wrap;html=1;fillColor=#C88AFF;" vertex="1" parent="1">
          <mxGeometry x="650" y="680" width="100" height="30" as="geometry" />
        </mxCell>
        <mxCell id="aR_i40FDtTKbv0qqF_Ef-43" value="Gremlin" style="rounded=0;whiteSpace=wrap;html=1;fillColor=#C88AFF;" vertex="1" parent="1">
          <mxGeometry x="650" y="730" width="100" height="30" as="geometry" />
        </mxCell>
        <mxCell id="aR_i40FDtTKbv0qqF_Ef-44" value="Milvue" style="rounded=0;whiteSpace=wrap;html=1;fillColor=#C88AFF;" vertex="1" parent="1">
          <mxGeometry x="650" y="780" width="100" height="30" as="geometry" />
        </mxCell>
        <mxCell id="aR_i40FDtTKbv0qqF_Ef-45" value="分析引擎系统" style="rounded=0;whiteSpace=wrap;html=1;fillColor=#C88AFF;" vertex="1" parent="1">
          <mxGeometry x="150" y="690" width="100" height="30" as="geometry" />
        </mxCell>
        <mxCell id="aR_i40FDtTKbv0qqF_Ef-46" value="智能语音机器人" style="rounded=0;whiteSpace=wrap;html=1;fillColor=#C88AFF;" vertex="1" parent="1">
          <mxGeometry x="315" y="690" width="100" height="30" as="geometry" />
        </mxCell>
        <mxCell id="aR_i40FDtTKbv0qqF_Ef-47" value="关系网络系统" style="rounded=0;whiteSpace=wrap;html=1;fillColor=#C88AFF;" vertex="1" parent="1">
          <mxGeometry x="470" y="690" width="100" height="30" as="geometry" />
        </mxCell>
        <mxCell id="aR_i40FDtTKbv0qqF_Ef-48" value="flink" style="rounded=0;whiteSpace=wrap;html=1;fillColor=#C88AFF;" vertex="1" parent="1">
          <mxGeometry x="150" y="750" width="100" height="30" as="geometry" />
        </mxCell>
        <mxCell id="aR_i40FDtTKbv0qqF_Ef-49" value="python" style="rounded=0;whiteSpace=wrap;html=1;fillColor=#C88AFF;" vertex="1" parent="1">
          <mxGeometry x="320" y="750" width="100" height="30" as="geometry" />
        </mxCell>
        <mxCell id="aR_i40FDtTKbv0qqF_Ef-50" value="NEO4J" style="rounded=0;whiteSpace=wrap;html=1;fillColor=#C88AFF;" vertex="1" parent="1">
          <mxGeometry x="470" y="750" width="100" height="30" as="geometry" />
        </mxCell>
        <mxCell id="aR_i40FDtTKbv0qqF_Ef-51" value="spark streaming" style="rounded=0;whiteSpace=wrap;html=1;fillColor=#C88AFF;" vertex="1" parent="1">
          <mxGeometry x="150" y="790" width="100" height="30" as="geometry" />
        </mxCell>
        <mxCell id="aR_i40FDtTKbv0qqF_Ef-52" value="NLTK,GENSIM" style="rounded=0;whiteSpace=wrap;html=1;fillColor=#C88AFF;" vertex="1" parent="1">
          <mxGeometry x="320" y="790" width="100" height="30" as="geometry" />
        </mxCell>
        <mxCell id="aR_i40FDtTKbv0qqF_Ef-53" value="GIRAPH" style="rounded=0;whiteSpace=wrap;html=1;fillColor=#C88AFF;" vertex="1" parent="1">
          <mxGeometry x="470" y="790" width="100" height="30" as="geometry" />
        </mxCell>
        <mxCell id="aR_i40FDtTKbv0qqF_Ef-65" style="edgeStyle=orthogonalEdgeStyle;rounded=0;orthogonalLoop=1;jettySize=auto;html=1;exitX=0.992;exitY=0.47;exitDx=0;exitDy=0;entryX=0;entryY=0.75;entryDx=0;entryDy=0;exitPerimeter=0;" edge="1" parent="1" source="aR_i40FDtTKbv0qqF_Ef-57" target="aR_i40FDtTKbv0qqF_Ef-64">
          <mxGeometry relative="1" as="geometry" />
        </mxCell>
        <mxCell id="aR_i40FDtTKbv0qqF_Ef-57" value="接入层" style="rounded=0;whiteSpace=wrap;html=1;verticalAlign=top;fillColor=#FFABB9;" vertex="1" parent="1">
          <mxGeometry x="140" y="940" width="120" height="370" as="geometry" />
        </mxCell>
        <mxCell id="aR_i40FDtTKbv0qqF_Ef-58" value="MQ" style="rounded=0;whiteSpace=wrap;html=1;fillColor=#FFABFC;" vertex="1" parent="1">
          <mxGeometry x="150" y="980" width="100" height="30" as="geometry" />
        </mxCell>
        <mxCell id="aR_i40FDtTKbv0qqF_Ef-59" value="HTTP/HTTPS" style="rounded=0;whiteSpace=wrap;html=1;fillColor=#FFABFC;" vertex="1" parent="1">
          <mxGeometry x="150" y="1030" width="100" height="30" as="geometry" />
        </mxCell>
        <mxCell id="aR_i40FDtTKbv0qqF_Ef-60" value="rpc" style="rounded=0;whiteSpace=wrap;html=1;fillColor=#FFABFC;" vertex="1" parent="1">
          <mxGeometry x="150" y="1080" width="100" height="30" as="geometry" />
        </mxCell>
        <mxCell id="aR_i40FDtTKbv0qqF_Ef-61" value="FTPS" style="rounded=0;whiteSpace=wrap;html=1;fillColor=#FFABFC;" vertex="1" parent="1">
          <mxGeometry x="150" y="1130" width="100" height="30" as="geometry" />
        </mxCell>
        <mxCell id="aR_i40FDtTKbv0qqF_Ef-62" value="" style="shape=flexArrow;endArrow=classic;html=1;entryX=0;entryY=0.5;entryDx=0;entryDy=0;" edge="1" parent="1" target="aR_i40FDtTKbv0qqF_Ef-57">
          <mxGeometry width="50" height="50" relative="1" as="geometry">
            <mxPoint y="1125" as="sourcePoint" />
            <mxPoint x="440" y="1070" as="targetPoint" />
          </mxGeometry>
        </mxCell>
        <mxCell id="aR_i40FDtTKbv0qqF_Ef-63" value="" style="endArrow=classic;startArrow=classic;html=1;exitX=0.5;exitY=0;exitDx=0;exitDy=0;entryX=0.135;entryY=1;entryDx=0;entryDy=0;entryPerimeter=0;" edge="1" parent="1" source="aR_i40FDtTKbv0qqF_Ef-57" target="aR_i40FDtTKbv0qqF_Ef-14">
          <mxGeometry width="50" height="50" relative="1" as="geometry">
            <mxPoint x="390" y="1120" as="sourcePoint" />
            <mxPoint x="440" y="1070" as="targetPoint" />
          </mxGeometry>
        </mxCell>
        <mxCell id="aR_i40FDtTKbv0qqF_Ef-96" style="edgeStyle=orthogonalEdgeStyle;rounded=0;orthogonalLoop=1;jettySize=auto;html=1;exitX=1;exitY=0.5;exitDx=0;exitDy=0;entryX=0;entryY=0.5;entryDx=0;entryDy=0;strokeColor=#1A1A1A;" edge="1" parent="1" source="aR_i40FDtTKbv0qqF_Ef-64" target="aR_i40FDtTKbv0qqF_Ef-72">
          <mxGeometry relative="1" as="geometry" />
        </mxCell>
        <mxCell id="aR_i40FDtTKbv0qqF_Ef-64" value="清洗层" style="rounded=0;whiteSpace=wrap;html=1;verticalAlign=top;fillColor=#FFF2FD;" vertex="1" parent="1">
          <mxGeometry x="299" y="940" width="130" height="230" as="geometry" />
        </mxCell>
        <mxCell id="aR_i40FDtTKbv0qqF_Ef-66" value="" style="endArrow=classic;startArrow=classic;html=1;exitX=0.5;exitY=0;exitDx=0;exitDy=0;entryX=0.379;entryY=1;entryDx=0;entryDy=0;entryPerimeter=0;" edge="1" parent="1" source="aR_i40FDtTKbv0qqF_Ef-64" target="aR_i40FDtTKbv0qqF_Ef-14">
          <mxGeometry width="50" height="50" relative="1" as="geometry">
            <mxPoint x="210" y="950" as="sourcePoint" />
            <mxPoint x="209.0999999999999" y="870" as="targetPoint" />
          </mxGeometry>
        </mxCell>
        <mxCell id="aR_i40FDtTKbv0qqF_Ef-67" value="kafka" style="rounded=0;whiteSpace=wrap;html=1;fillColor=#FFDBEB;" vertex="1" parent="1">
          <mxGeometry x="320" y="980" width="100" height="30" as="geometry" />
        </mxCell>
        <mxCell id="aR_i40FDtTKbv0qqF_Ef-68" value="pulsar" style="rounded=0;whiteSpace=wrap;html=1;fillColor=#FFDBEB;" vertex="1" parent="1">
          <mxGeometry x="320" y="1030" width="100" height="30" as="geometry" />
        </mxCell>
        <mxCell id="aR_i40FDtTKbv0qqF_Ef-70" value="ETL" style="rounded=0;whiteSpace=wrap;html=1;fillColor=#FFDBEB;" vertex="1" parent="1">
          <mxGeometry x="320" y="1080" width="100" height="30" as="geometry" />
        </mxCell>
        <mxCell id="aR_i40FDtTKbv0qqF_Ef-71" value="FlinkX" style="rounded=0;whiteSpace=wrap;html=1;fillColor=#FFDBEB;" vertex="1" parent="1">
          <mxGeometry x="320" y="1130" width="100" height="30" as="geometry" />
        </mxCell>
        <mxCell id="aR_i40FDtTKbv0qqF_Ef-72" value="计算层" style="rounded=0;whiteSpace=wrap;html=1;verticalAlign=top;fillColor=#FF2E9D;" vertex="1" parent="1">
          <mxGeometry x="460" y="940" width="320" height="230" as="geometry" />
        </mxCell>
        <mxCell id="aR_i40FDtTKbv0qqF_Ef-73" value="实时计算" style="rounded=0;whiteSpace=wrap;html=1;fillColor=#FF96A1;verticalAlign=top;" vertex="1" parent="1">
          <mxGeometry x="470" y="970" width="150" height="190" as="geometry" />
        </mxCell>
        <mxCell id="aR_i40FDtTKbv0qqF_Ef-74" value="kafka-stream" style="rounded=0;whiteSpace=wrap;html=1;fillColor=#FFF2F4;" vertex="1" parent="1">
          <mxGeometry x="495" y="1000" width="100" height="30" as="geometry" />
        </mxCell>
        <mxCell id="aR_i40FDtTKbv0qqF_Ef-75" value="flink" style="rounded=0;whiteSpace=wrap;html=1;fillColor=#FFF2F4;" vertex="1" parent="1">
          <mxGeometry x="495" y="1040" width="100" height="30" as="geometry" />
        </mxCell>
        <mxCell id="aR_i40FDtTKbv0qqF_Ef-76" value="beams" style="rounded=0;whiteSpace=wrap;html=1;fillColor=#FFF2F4;" vertex="1" parent="1">
          <mxGeometry x="495" y="1080" width="100" height="30" as="geometry" />
        </mxCell>
        <mxCell id="aR_i40FDtTKbv0qqF_Ef-77" value="spark streaming" style="rounded=0;whiteSpace=wrap;html=1;fillColor=#FFF2F4;" vertex="1" parent="1">
          <mxGeometry x="495" y="1120" width="100" height="30" as="geometry" />
        </mxCell>
        <mxCell id="aR_i40FDtTKbv0qqF_Ef-78" value="离线计算" style="rounded=0;whiteSpace=wrap;html=1;fillColor=#FF96A1;verticalAlign=top;" vertex="1" parent="1">
          <mxGeometry x="625" y="970" width="150" height="190" as="geometry" />
        </mxCell>
        <mxCell id="aR_i40FDtTKbv0qqF_Ef-79" value="Hive" style="rounded=0;whiteSpace=wrap;html=1;fillColor=#FFF2F4;" vertex="1" parent="1">
          <mxGeometry x="650" y="1000" width="100" height="30" as="geometry" />
        </mxCell>
        <mxCell id="aR_i40FDtTKbv0qqF_Ef-80" value="Spark" style="rounded=0;whiteSpace=wrap;html=1;fillColor=#FFF2F4;" vertex="1" parent="1">
          <mxGeometry x="650" y="1040" width="100" height="30" as="geometry" />
        </mxCell>
        <mxCell id="aR_i40FDtTKbv0qqF_Ef-81" value="Kylin" style="rounded=0;whiteSpace=wrap;html=1;fillColor=#FFF2F4;" vertex="1" parent="1">
          <mxGeometry x="650" y="1080" width="100" height="30" as="geometry" />
        </mxCell>
        <mxCell id="aR_i40FDtTKbv0qqF_Ef-82" value="MR" style="rounded=0;whiteSpace=wrap;html=1;fillColor=#FFF2F4;" vertex="1" parent="1">
          <mxGeometry x="650" y="1120" width="100" height="30" as="geometry" />
        </mxCell>
        <mxCell id="aR_i40FDtTKbv0qqF_Ef-84" value="" style="endArrow=classic;startArrow=classic;html=1;exitX=0.5;exitY=0;exitDx=0;exitDy=0;entryX=0.75;entryY=1;entryDx=0;entryDy=0;" edge="1" parent="1" source="aR_i40FDtTKbv0qqF_Ef-72" target="aR_i40FDtTKbv0qqF_Ef-14">
          <mxGeometry width="50" height="50" relative="1" as="geometry">
            <mxPoint x="374" y="950" as="sourcePoint" />
            <mxPoint x="370.1400000000001" y="870" as="targetPoint" />
          </mxGeometry>
        </mxCell>
        <mxCell id="aR_i40FDtTKbv0qqF_Ef-85" value="数据层" style="rounded=0;whiteSpace=wrap;html=1;fillColor=#FFFF61;verticalAlign=top;" vertex="1" parent="1">
          <mxGeometry x="300" y="1200" width="480" height="120" as="geometry" />
        </mxCell>
        <mxCell id="aR_i40FDtTKbv0qqF_Ef-86" value="mysql" style="shape=cylinder3;whiteSpace=wrap;html=1;boundedLbl=1;backgroundOutline=1;size=15;fillColor=#FFD21C;" vertex="1" parent="1">
          <mxGeometry x="320" y="1230" width="60" height="60" as="geometry" />
        </mxCell>
        <mxCell id="aR_i40FDtTKbv0qqF_Ef-87" value="mongoDB" style="shape=cylinder3;whiteSpace=wrap;html=1;boundedLbl=1;backgroundOutline=1;size=15;fillColor=#FFD21C;" vertex="1" parent="1">
          <mxGeometry x="400" y="1230" width="60" height="60" as="geometry" />
        </mxCell>
        <mxCell id="aR_i40FDtTKbv0qqF_Ef-88" value="clickhouse" style="shape=cylinder3;whiteSpace=wrap;html=1;boundedLbl=1;backgroundOutline=1;size=15;fillColor=#FFD21C;" vertex="1" parent="1">
          <mxGeometry x="490" y="1230" width="60" height="60" as="geometry" />
        </mxCell>
        <mxCell id="aR_i40FDtTKbv0qqF_Ef-89" value="OSS" style="shape=cylinder3;whiteSpace=wrap;html=1;boundedLbl=1;backgroundOutline=1;size=15;fillColor=#FFD21C;" vertex="1" parent="1">
          <mxGeometry x="570" y="1230" width="60" height="60" as="geometry" />
        </mxCell>
        <mxCell id="aR_i40FDtTKbv0qqF_Ef-90" value="NEO4J" style="shape=cylinder3;whiteSpace=wrap;html=1;boundedLbl=1;backgroundOutline=1;size=15;fillColor=#FFD21C;" vertex="1" parent="1">
          <mxGeometry x="640" y="1230" width="60" height="60" as="geometry" />
        </mxCell>
        <mxCell id="aR_i40FDtTKbv0qqF_Ef-91" value="......" style="shape=cylinder3;whiteSpace=wrap;html=1;boundedLbl=1;backgroundOutline=1;size=15;fillColor=#FFD21C;" vertex="1" parent="1">
          <mxGeometry x="715" y="1230" width="60" height="60" as="geometry" />
        </mxCell>
        <mxCell id="aR_i40FDtTKbv0qqF_Ef-92" value="" style="endArrow=classic;startArrow=classic;html=1;entryX=0.5;entryY=1;entryDx=0;entryDy=0;exitX=0.131;exitY=0.017;exitDx=0;exitDy=0;exitPerimeter=0;strokeColor=#1A1A1A;" edge="1" parent="1" source="aR_i40FDtTKbv0qqF_Ef-85" target="aR_i40FDtTKbv0qqF_Ef-64">
          <mxGeometry width="50" height="50" relative="1" as="geometry">
            <mxPoint x="390" y="1320" as="sourcePoint" />
            <mxPoint x="440" y="1270" as="targetPoint" />
          </mxGeometry>
        </mxCell>
        <mxCell id="aR_i40FDtTKbv0qqF_Ef-93" value="" style="endArrow=classic;startArrow=classic;html=1;entryX=0.5;entryY=1;entryDx=0;entryDy=0;exitX=0.667;exitY=0;exitDx=0;exitDy=0;exitPerimeter=0;strokeColor=#1A1A1A;" edge="1" parent="1" source="aR_i40FDtTKbv0qqF_Ef-85" target="aR_i40FDtTKbv0qqF_Ef-72">
          <mxGeometry width="50" height="50" relative="1" as="geometry">
            <mxPoint x="372.8800000000001" y="1212.04" as="sourcePoint" />
            <mxPoint x="374" y="1180" as="targetPoint" />
          </mxGeometry>
        </mxCell>
      </root>
    </mxGraphModel>
  </diagram>
</mxfile>
